<svg width="512" height="512" viewBox="0 0 512 512" fill="none" xmlns="http://www.w3.org/2000/svg">
  <rect width="512" height="512" rx="128" fill="#8A66FF"/>
  <path d="M384 176C384 158.3 369.7 144 352 144H160C142.3 144 128 158.3 128 176V336C128 353.7 142.3 368 160 368H352C369.7 368 384 353.7 384 336V176Z" fill="white"/>
  <path d="M240 216H272C281.9 216 290 224.1 290 234V278C290 287.9 281.9 296 272 296H240C230.1 296 222 287.9 222 278V234C222 224.1 230.1 216 240 216Z" fill="#8A66FF"/>
  <path d="M160 216H192C201.9 216 210 224.1 210 234V278C210 287.9 201.9 296 192 296H160C150.1 296 142 287.9 142 278V234C142 224.1 150.1 216 160 216Z" fill="#8A66FF"/>
  <path d="M320 216H352C361.9 216 370 224.1 370 234V278C370 287.9 361.9 296 352 296H320C310.1 296 302 287.9 302 278V234C302 224.1 310.1 216 320 216Z" fill="#8A66FF"/>
  <path d="M172 242C172 238.7 174.7 236 178 236H194C197.3 236 200 238.7 200 242V258C200 261.3 197.3 264 194 264H178C174.7 264 172 261.3 172 258V242Z" fill="white"/>
  <path d="M332 242C332 238.7 334.7 236 338 236H354C357.3 236 360 238.7 360 242V258C360 261.3 357.3 264 354 264H338C334.7 264 332 261.3 332 258V242Z" fill="white"/>
  <path d="M252 242C252 238.7 254.7 236 258 236H274C277.3 236 280 238.7 280 242V258C280 261.3 277.3 264 274 264H258C254.7 264 252 261.3 252 258V242Z" fill="white"/>
</svg> 